<svg width="1280" height="700" viewBox="0 0 1280 700" fill="none" xmlns="http://www.w3.org/2000/svg">
<path d="M347.12 171.975C375.913 171.975 401.219 176.675 423.052 186.038C444.86 195.425 461.767 208.953 473.771 226.621H473.783C485.776 244.301 491.785 265.36 491.785 289.786V521.494H399.494V489.418C385.526 502.077 369.714 511.666 352.046 518.21C334.378 524.754 315.496 528.025 295.437 528.025C272.296 528.025 251.914 523.779 234.234 515.26C216.554 506.741 202.813 494.748 192.997 479.257C183.182 463.778 178.268 445.99 178.268 424.61C178.268 403.23 182.527 385.337 191.034 370.94C199.541 356.532 212.522 344.753 229.976 335.592C247.418 326.431 270.118 319.233 298.042 313.998L396.877 294.366V293.712C396.877 280.613 391.963 270.368 382.147 262.944C372.332 255.532 360.672 251.82 345.823 251.82C330.975 251.82 318.101 255.092 307.203 261.636C296.293 268.191 288.881 279.197 284.955 292.284H184.812C187.857 267.418 196.483 244.848 210.665 226.954C224.835 209.072 243.491 195.437 266.62 186.05C289.737 176.674 316.579 171.975 347.12 171.975ZM827.372 177.614C842.387 177.614 856.45 185.003 864.98 197.364L881.34 221.101C898.603 246.145 934.867 247.108 953.57 223.908C954.26 223.063 955.558 221.267 955.558 221.267L956.391 220.065L986.206 177.959H1101.73L996.319 314.51C983.97 330.584 983.863 352.927 996.034 369.12L1053.08 445.004C1076.78 476.521 1054.3 521.565 1014.86 521.565C1000.02 521.565 986.146 514.284 977.711 502.077L951.857 464.623C933.999 438.757 895.843 438.614 877.782 464.325L837.58 521.565H722.707L837.08 372.201C837.088 372.19 837.974 371.008 838.389 370.404C849.394 354.485 849.05 333.2 837.307 317.614L789.322 253.891C765.694 222.504 788.086 177.614 827.372 177.614ZM628.336 240.441C628.973 206.16 656.96 178.566 691.394 178.566C726.226 178.566 754.463 206.804 754.463 241.637C754.463 276.469 726.226 304.706 691.394 304.706C656.96 304.706 628.973 277.112 628.336 242.831V521.482H527.538V178.181H628.336V240.441ZM408.549 328.608C373.712 328.608 345.479 356.841 345.479 391.678C345.479 426.514 373.724 454.748 408.549 454.748C443.385 454.748 471.618 426.514 471.618 391.678C471.618 356.841 443.385 328.609 408.549 328.608Z" fill="#07070D"/>
</svg>
